<svg xmlns="http://www.w3.org/2000/svg" version="1.1" xmlns:xlink="http://www.w3.org/1999/xlink" xmlns:svgjs="http://svgjs.dev/svgjs" width="100%" height="100%" viewBox="0 0 1000 600"><rect width="1000" height="600" x="0" y="0" fill="#d9d9d9"/><g><rect width="333.3333333333333" height="333.3333333333333" rx="13.333333333333334" ry="13.333333333333334" y="123.95916848623054" fill="#8800ff" transform="matrix(1.2286588271007661,0,0,1.2286588271007661,0,-57.079997906959505)" x="101.73694610595703"/><path d="M171.52609759721264 216.04888305073797L171.52609759721264 216.04888305073797L172.16066650106657 215.62583711483535Q183.82464730523918 216.8949749225432 212.53133581291792 219.0404221689066L212.53133581291792 219.0404221689066Q216.12722626809034 220.73260591251713 243.9576053371136 223.48240449588423L243.9576053371136 223.48240449588423Q254.8057118363311 226.05089767815025 254.8057118363311 229.22374219742L254.8057118363311 229.22374219742Q253.95961996452587 232.2152813155886 247.79523632708748 239.6488027607349L247.79523632708748 239.6488027607349Q247.79523632708748 240.28337166458886 238.00474466762654 252.61213893946558L238.00474466762654 252.61213893946558Q238.00474466762654 254.51584565102746 226.55228683140524 264.94090621434236L226.55228683140524 264.94090621434236L224.19531661709055 268.1137507336121L224.19531661709055 268.74831963746607Q227.39837870321048 268.74831963746607 238.00474466762654 266.6330899579529L238.00474466762654 266.6330899579529Q241.6308526896491 266.6330899579529 256.07484964403903 275.3357492108071L256.07484964403903 275.3357492108071Q259.9124806340129 279.5964261366836 263.7198940571366 291.8949758447102L263.7198940571366 291.8949758447102L263.7198940571366 294.2519460590249Q263.7198940571366 322.50537106395075 258.82464822740616 329.3043236052431L258.82464822740616 329.3043236052431Q254.8057118363311 340.9985219762659 236.73560685991862 353.538812219094L236.73560685991862 353.538812219094Q225.70619495959997 358.82688641787695 204.43302789706752 363.510609279656L204.43302789706752 363.510609279656Q201.8947522816517 364.3567011514614 195.94189161216462 364.3567011514614L195.94189161216462 364.3567011514614L194.46123083650542 364.3567011514614L193.1920930287975 364.77974708736394Q183.40160136933656 364.77974708736394 176.81417179599555 360.33776476038634L176.81417179599555 360.33776476038634L176.81417179599555 359.6729782896822Q177.4789582666997 359.2499323537795 181.07484872187206 350.97031903682796L181.07484872187206 350.97031903682796L181.4978946577747 350.97031903682796L185.97009455160256 350.97031903682796L188.29684719906703 350.97031903682796Q206.36695217547955 350.97031903682796 215.915703300139 341.4215679121685L215.915703300139 341.4215679121685L234.19733124450283 329.72736954114566Q244.59217424096755 320.3901413844376 245.68000664757432 316.34098742651236L245.68000664757432 316.34098742651236Q249.91046600660064 309.54203488522006 249.91046600660064 294.04042309107354L249.91046600660064 294.04042309107354Q249.69894303864933 291.8949758447102 249.2758971027467 291.8949758447102L249.2758971027467 291.8949758447102L249.91046600660064 290.20279210109965Q249.91046600660064 285.9723327420733 245.68000664757432 283.40383955980735L245.68000664757432 283.40383955980735Q243.9576053371136 279.17338020078097 239.0925770742333 279.17338020078097L239.0925770742333 279.17338020078097L233.7742853086002 279.17338020078097Q229.51360838272367 279.17338020078097 229.51360838272367 280.23099504053755L229.51360838272367 280.23099504053755L229.51360838272367 280.6540409764402Q238.21626763557785 280.6540409764402 243.11151346530832 284.88450033546656L243.11151346530832 284.88450033546656L243.11151346530832 285.33776383821936L242.4769445614544 285.760809774122Q240.5732378498925 285.760809774122 237.15865279582124 282.7692706559534L237.15865279582124 282.7692706559534L235.25494608425942 282.55774768800205Q219.33028835421027 282.55774768800205 196.36493754806727 293.4058541872196L196.36493754806727 293.4058541872196L194.2497078685541 294.6749919949275L193.1920930287975 294.2519460590249L193.1920930287975 292.55976231541433Q193.1920930287975 291.04888397290495 191.07686334928434 288.9336542933918L191.07686334928434 288.9336542933918L191.07686334928434 288.72213132544044Q191.07686334928434 288.0875624215865 195.94189161216462 277.23945592236896L195.94189161216462 277.23945592236896Q196.78798348396992 273.64356546719654 199.77952260213854 270.017457445174L199.77952260213854 270.017457445174L208.48218185499272 256.84259829849196Q213.3774276847232 246.2362323340759 217.81941001170085 243.87926211976122L217.81941001170085 243.87926211976122Q219.7533342901129 241.76403244024806 219.7533342901129 239.8603257286862L219.7533342901129 239.8603257286862L219.7533342901129 239.22575682483225Q217.3963640757982 237.50335551437152 215.7041803321877 237.50335551437152L215.7041803321877 237.50335551437152L175.96807992419028 236.65726364256628Q174.06437321262842 236.65726364256628 173.6413272767258 233.06137318739388L173.6413272767258 233.06137318739388L173.6413272767258 232.2152813155886L173.85285024467711 231.36918944378334L173.85285024467711 230.4928800051279Q173.21828134082318 228.80069626151737 171.52609759721264 216.04888305073797ZM180.22875685006682 218.40585326505263L180.22875685006682 218.40585326505263L179.38266497826154 219.2519451368579L179.38266497826154 221.36717481637106L179.8057109141642 221.36717481637106L182.5555094975313 221.36717481637106L182.97855543343394 221.36717481637106L188.29684719906703 221.7902207522737L189.1429390708723 220.94412888046844Q185.33552564774863 218.40585326505263 180.22875685006682 218.40585326505263ZM174.27589618057976 221.7902207522737L174.27589618057976 221.7902207522737Q174.69894211648239 222.8478355920303 175.96807992419028 222.8478355920303L175.96807992419028 222.8478355920303L176.39112586009293 222.21326668817636L176.39112586009293 221.7902207522737L175.75655695623897 220.94412888046844L174.9104650844337 220.94412888046844Q174.27589618057976 220.94412888046844 174.27589618057976 221.7902207522737ZM200.6256144739438 222.8478355920303L201.04866040984643 222.42478965612767L200.41409150599247 222.42478965612767L200.41409150599247 222.8478355920303L200.6256144739438 222.8478355920303ZM242.05389862555177 225.8393747101989L241.41932972169778 225.20480580634495L236.73560685991862 225.20480580634495Q236.73560685991862 226.47394361405287 240.78476081784385 226.68546658200418L240.78476081784385 226.68546658200418L241.20780675374647 226.68546658200418L242.05389862555177 226.05089767815025L242.05389862555177 225.8393747101989ZM192.55752412494357 226.47394361405287L192.55752412494357 226.47394361405287Q203.79845899321356 227.7430814217608 217.3963640757982 227.7430814217608L217.3963640757982 227.7430814217608L219.96485725806423 227.7430814217608Q219.96485725806423 226.26242064610153 204.43302789706752 225.6278517422476L204.43302789706752 225.6278517422476L198.72190776238196 225.6278517422476Q192.55752412494357 225.6278517422476 192.55752412494357 226.47394361405287ZM182.5555094975313 226.47394361405287L181.4978946577747 226.47394361405287L180.65180278596944 226.68546658200418Q180.65180278596944 228.58917329356603 191.28838631723568 229.22374219742L191.28838631723568 229.22374219742L191.7114322531383 229.01221922946868L191.7114322531383 228.58917329356603Q188.931416102921 226.47394361405287 182.5555094975313 226.47394361405287L182.5555094975313 226.47394361405287ZM248.42980523094144 229.01221922946868L248.42980523094144 229.01221922946868L248.42980523094144 229.22374219742Q248.64132819889275 230.06983406922524 250.12198897455198 230.06983406922524L250.12198897455198 230.06983406922524L250.96808084635722 230.06983406922524Q251.81417271816252 230.06983406922524 252.47895918886664 229.22374219742L252.47895918886664 229.22374219742Q252.47895918886664 227.95460438971207 249.91046600660064 227.95460438971207L249.91046600660064 227.95460438971207Q249.0643741347954 228.37765032561472 248.42980523094144 229.01221922946868ZM195.3073227083107 228.37765032561472L195.3073227083107 228.37765032561472L195.09579974035938 228.58917329356603L195.09579974035938 228.80069626151737Q195.09579974035938 229.85831110127396 202.52932118550564 229.85831110127396L202.52932118550564 229.85831110127396L210.17436559860326 229.85831110127396Q210.17436559860326 228.58917329356603 195.3073227083107 228.37765032561472ZM221.44551803372343 230.06983406922524L221.44551803372343 230.06983406922524L215.915703300139 230.06983406922524L215.915703300139 230.4928800051279L226.55228683140524 232.2152813155886L237.15865279582124 231.36918944378334L237.15865279582124 230.94614350788072Q233.13971640474625 230.06983406922524 221.44551803372343 230.06983406922524ZM177.23721773189817 231.79223537968596L177.23721773189817 231.79223537968596L177.23721773189817 232.2152813155886Q177.23721773189817 233.90746505919915 185.97009455160256 233.90746505919915L185.97009455160256 233.90746505919915L194.67275380445676 233.90746505919915L194.67275380445676 233.2728961553452Q194.67275380445676 232.42680428353992 185.5470486156999 232.2152813155886L185.5470486156999 232.2152813155886Q185.5470486156999 231.15766647583206 180.22875685006682 230.94614350788072L180.22875685006682 230.94614350788072L179.38266497826154 230.94614350788072Q177.4789582666997 230.94614350788072 177.23721773189817 231.79223537968596ZM202.74084415345698 233.2728961553452L202.74084415345698 233.2728961553452L198.2988618264793 233.2728961553452Q198.2988618264793 234.33051099510178 203.79845899321356 234.33051099510178L203.79845899321356 234.33051099510178L204.43302789706752 234.33051099510178Q204.43302789706752 233.2728961553452 202.74084415345698 233.2728961553452ZM245.2267431448215 236.02269473871232L243.9576053371136 236.02269473871232L242.05389862555177 237.50335551437152Q242.6884675294057 240.49489463254017 244.1691283050649 240.49489463254017L244.1691283050649 240.49489463254017Q245.68000664757432 238.80271088892962 245.68000664757432 237.50335551437152L245.68000664757432 237.50335551437152L245.68000664757432 236.44574067461497L245.2267431448215 236.02269473871232ZM225.49467199164863 239.01423385688094L224.19531661709055 239.01423385688094L223.7722706811879 239.6488027607349L223.7722706811879 240.07184869663752L225.071626055746 240.07184869663752L225.49467199164863 239.6488027607349L225.49467199164863 239.01423385688094ZM225.49467199164863 243.6677391518099L225.49467199164863 243.6677391518099L225.49467199164863 244.30230805566387L225.91771792755128 244.30230805566387Q228.45599354296706 244.30230805566387 229.9366543186263 240.49489463254017L229.9366543186263 240.49489463254017L229.51360838272367 240.28337166458886L229.30208541477236 240.28337166458886Q225.49467199164863 241.34098650434544 225.49467199164863 243.6677391518099ZM241.41932972169778 243.6677391518099L241.41932972169778 243.2446932159073L240.36171488194123 243.2446932159073L240.36171488194123 243.87926211976122L240.99628378579516 243.87926211976122L241.41932972169778 243.6677391518099ZM239.30410004218461 245.81318639817326L239.30410004218461 245.17861749431933L238.881054106282 245.17861749431933L238.881054106282 245.81318639817326L239.30410004218461 245.81318639817326ZM226.55228683140524 258.5649996089527L226.55228683140524 258.5649996089527L226.3407638634539 259.1995685128066L226.76380979935655 259.83413741666055Q231.2057921263342 258.776522576904 235.67799202016204 252.61213893946558L235.67799202016204 252.61213893946558L236.73560685991862 249.83212278924833L236.52408389196734 249.620599821297L235.25494608425942 249.620599821297Q232.7166704688436 249.620599821297 226.55228683140524 258.5649996089527ZM215.28113439628504 258.9880455448553L215.28113439628504 258.9880455448553L215.7041803321877 258.9880455448553Q218.90724241830762 257.0541212664433 218.90724241830762 254.7273686189788L218.90724241830762 254.7273686189788L218.90724241830762 254.51584565102746L218.484196482405 254.51584565102746Q215.28113439628504 255.3619375228327 215.28113439628504 258.9880455448553ZM219.7533342901129 258.14195367305007L219.7533342901129 258.14195367305007L219.7533342901129 258.9880455448553L220.38790319396685 258.9880455448553Q221.86856396962605 257.6886901702972 221.86856396962605 256.6310753305406L221.86856396962605 256.6310753305406L221.65704100167474 256.41955236258934Q220.81094912986947 256.84259829849196 219.7533342901129 258.14195367305007ZM225.70619495959997 261.3147981923198L225.28314902369732 261.3147981923198L224.61836255299318 261.9493670961738L224.61836255299318 263.00698193593036L225.28314902369732 263.00698193593036L225.70619495959997 262.58393600002773L225.70619495959997 261.3147981923198ZM202.74084415345698 268.74831963746607L202.74084415345698 268.74831963746607L202.74084415345698 269.1713655733687L203.1638900893596 269.5944115092713L205.09781436777166 269.5944115092713L209.11675075884668 266.42156699000157L209.328273726798 265.1524291822937L209.328273726798 264.69916567954084L208.90522779089537 264.2761197436382L208.48218185499272 264.2761197436382Q205.09781436777166 265.1524291822937 202.74084415345698 268.74831963746607ZM221.86856396962605 275.7587951467097L221.86856396962605 275.7587951467097L221.86856396962605 275.97031811466104L222.0800869375774 275.97031811466104L230.78274619043157 273.2205195312939Q241.20780675374647 274.2781343710505 243.32303643325963 274.91270327490446L243.32303643325963 274.91270327490446Q244.3806512730162 274.91270327490446 244.59217424096755 274.06661140309916L244.59217424096755 274.06661140309916L244.80369720891886 274.06661140309916Q250.12198897455198 278.0855477941742 253.1135280927206 278.0855477941742L253.1135280927206 278.0855477941742L253.95961996452587 278.0855477941742L254.1711429324772 277.45097889032024L254.1711429324772 277.23945592236896Q254.1711429324772 274.91270327490446 239.51562301013593 271.28659525288185L239.51562301013593 271.28659525288185Q238.881054106282 271.28659525288185 238.21626763557785 269.5944115092713L238.21626763557785 269.5944115092713L237.15865279582124 268.74831963746607L236.52408389196734 268.74831963746607Q231.41731509428553 268.74831963746607 225.91771792755128 273.8550884351479L225.91771792755128 273.8550884351479Q222.0800869375774 274.91270327490446 221.86856396962605 275.7587951467097ZM218.90724241830762 270.4405033810766L218.03093297965216 269.5944115092713L217.81941001170085 269.5944115092713L217.81941001170085 270.4405033810766L218.03093297965216 270.65202634902795L218.90724241830762 270.65202634902795L218.90724241830762 270.4405033810766ZM199.77952260213854 275.97031811466104L199.77952260213854 275.97031811466104L199.77952260213854 276.604887018515L199.99104557008985 276.604887018515Q202.74084415345698 275.1242262428558 204.00998196116487 271.7398587556347L204.00998196116487 271.7398587556347L203.58693602526225 271.7398587556347Q201.6832293137004 272.7974735953913 199.77952260213854 275.97031811466104ZM206.57847514343086 276.604887018515L206.57847514343086 276.604887018515L206.57847514343086 277.8740248262229L207.42456701523614 277.8740248262229Q209.96284263065195 277.8740248262229 211.23198043835984 273.8550884351479L211.23198043835984 273.8550884351479L210.5974115345059 273.2205195312939Q208.48218185499272 274.06661140309916 206.57847514343086 276.604887018515ZM208.2706588870414 283.40383955980735L208.2706588870414 283.40383955980735L208.2706588870414 283.61536252775863L208.90522779089537 283.61536252775863Q223.13770177733397 280.23099504053755 223.13770177733397 278.75033426487835L223.13770177733397 278.75033426487835L223.13770177733397 278.538811296927L222.50313287348 278.538811296927Q215.7041803321877 279.17338020078097 208.2706588870414 283.40383955980735ZM198.2988618264793 284.03840846366126L198.2988618264793 284.03840846366126L198.2988618264793 284.6729773675152L198.51038479443065 284.88450033546656L198.51038479443065 285.33776383821936Q205.52086030367428 284.03840846366126 209.11675075884668 281.28860988029413L209.11675075884668 281.28860988029413L209.11675075884668 281.07708691234285L208.48218185499272 280.23099504053755Q201.26018337779774 281.71165581619675 198.2988618264793 284.03840846366126ZM253.3250510606719 280.23099504053755L253.3250510606719 280.23099504053755L250.96808084635722 280.23099504053755L250.96808084635722 280.6540409764402Q252.0256956861138 283.61536252775863 253.95961996452587 283.61536252775863L253.95961996452587 283.61536252775863L255.44028074018507 283.61536252775863Q257.55551041969824 283.61536252775863 257.97855635560086 282.55774768800205L257.97855635560086 282.55774768800205Q256.07484964403903 280.23099504053755 253.3250510606719 280.23099504053755ZM257.1324644837956 285.9723327420733L256.2863726119904 285.9723327420733L256.07484964403903 286.6069016459273L256.07484964403903 286.81842461387856Q256.07484964403903 288.5106083574891 259.4894346981103 293.1943312192683L259.4894346981103 293.1943312192683L259.27791173015896 297.2132676103433L259.27791173015896 302.1085134400738Q259.27791173015896 304.43526608753825 260.12400360196426 304.6467890554896L260.12400360196426 304.6467890554896L260.5470495378669 304.6467890554896L260.9700954737695 299.99328376056064L260.9700954737695 292.55976231541433Q260.9700954737695 288.9336542933918 257.1324644837956 285.9723327420733L257.1324644837956 285.9723327420733ZM194.67275380445676 288.5106083574891L194.67275380445676 288.5106083574891L194.67275380445676 288.72213132544044L195.09579974035938 289.3567002292944L196.9995064519212 289.3567002292944Q198.93343073033327 289.3567002292944 199.14495369828458 288.5106083574891L199.14495369828458 288.5106083574891L199.14495369828458 287.87603945363514Q198.72190776238196 286.81842461387856 197.42255238782386 286.81842461387856L197.42255238782386 286.81842461387856L196.9995064519212 286.81842461387856Q195.73036864421334 286.81842461387856 194.67275380445676 288.5106083574891ZM248.0067592950388 289.3567002292944L247.16066742323352 288.5106083574891L247.16066742323352 287.87603945363514L248.42980523094144 289.3567002292944L248.0067592950388 289.3567002292944ZM252.69048215681795 294.04042309107354L252.26743622091533 293.6173771551709L251.81417271816252 293.6173771551709L251.81417271816252 294.04042309107354L252.26743622091533 294.6749919949275L252.69048215681795 294.6749919949275L252.69048215681795 294.04042309107354ZM250.96808084635722 305.28135795934355L250.96808084635722 305.28135795934355L250.96808084635722 306.157667397999L251.39112678225987 306.79223630185294Q253.95961996452587 302.5315593759764 253.95961996452587 299.3587148567067L253.95961996452587 299.3587148567067L253.95961996452587 296.79022167444066L253.3250510606719 296.79022167444066Q250.96808084635722 299.57023782465797 250.96808084635722 305.28135795934355ZM260.5470495378669 306.79223630185294L260.5470495378669 306.79223630185294L258.40160229150354 310.811172692928Q258.6131252594548 311.65726456473317 259.4894346981103 312.08031050063585L259.4894346981103 312.08031050063585L259.9124806340129 312.08031050063585Q261.3931414096721 311.4457415967819 261.3931414096721 309.3305119172687L261.3931414096721 309.3305119172687Q261.18161844172084 306.79223630185294 260.5470495378669 306.79223630185294ZM252.26743622091533 316.9755563303663L252.26743622091533 316.9755563303663L252.26743622091533 317.398602266269L253.1135280927206 317.398602266269L254.1711429324772 316.1294644585611L254.1711429324772 314.86032665085315L253.53657402862325 314.86032665085315Q252.26743622091533 315.7064185226584 252.26743622091533 316.9755563303663ZM250.3335119425033 323.98603183960995L250.3335119425033 323.98603183960995L250.96808084635722 324.19755480756123L255.22875777223376 321.4477562241941L255.22875777223376 321.02471028829154L254.59418886837983 320.60166435238887L254.1711429324772 320.60166435238887Q252.47895918886664 320.60166435238887 250.3335119425033 323.98603183960995ZM241.20780675374647 330.573461412951L241.20780675374647 330.573461412951L242.05389862555177 330.573461412951Q244.1691283050649 330.573461412951 246.5260985193796 328.0351857975352L246.5260985193796 328.0351857975352L246.5260985193796 327.6121398616325L245.68000664757432 325.25516964731787L246.5260985193796 323.1399399678047Q244.59217424096755 323.1399399678047 242.6884675294057 328.0351857975352L242.6884675294057 328.0351857975352Q241.20780675374647 329.5158465731944 241.20780675374647 330.573461412951ZM256.2863726119904 324.6206007434639L256.07484964403903 324.6206007434639L255.44028074018507 325.25516964731787L255.44028074018507 325.46669261526915L256.2863726119904 325.46669261526915L256.2863726119904 324.6206007434639ZM248.42980523094144 331.41955328475626L248.42980523094144 331.41955328475626L248.42980523094144 331.84259922065894L249.91046600660064 332.0541221886102L251.39112678225987 332.0541221886102Q254.59418886837983 331.84259922065894 254.59418886837983 329.5158465731944L254.59418886837983 329.5158465731944Q254.1711429324772 328.45823173343786 253.1135280927206 328.45823173343786L253.1135280927206 328.45823173343786Q250.96808084635722 328.45823173343786 248.42980523094144 331.41955328475626ZM215.28113439628504 345.44050430324353L215.28113439628504 345.44050430324353L215.915703300139 345.44050430324353Q235.04342311630808 337.37241395424326 235.04342311630808 333.7765234990709L235.04342311630808 333.7765234990709L233.7742853086002 333.7765234990709Q229.30208541477236 335.4687072426815 218.484196482405 342.9022286878277L218.484196482405 342.9022286878277Q215.28113439628504 345.01745836734096 215.28113439628504 345.44050430324353ZM248.85285116684406 336.7378450503894L248.85285116684406 336.7378450503894L248.85285116684406 336.9493680183407L249.91046600660064 336.9493680183407Q250.5450349104546 336.9493680183407 251.39112678225987 335.0456613067788L251.39112678225987 335.0456613067788L250.96808084635722 334.62261537087625Q248.85285116684406 335.2571842747301 248.85285116684406 336.7378450503894ZM246.7376214873309 335.0456613067788L246.5260985193796 335.0456613067788L245.68000664757432 335.89175317858405L245.68000664757432 336.10327614653545L246.7376214873309 336.10327614653545L247.37219039118486 335.68023021063277L246.7376214873309 335.0456613067788ZM240.99628378579516 343.53679759168165L240.99628378579516 343.53679759168165L241.20780675374647 343.53679759168165Q243.32303643325963 343.53679759168165 246.10305258347694 341.4215679121685L246.10305258347694 341.4215679121685Q246.10305258347694 340.7869990083145 245.2267431448215 340.7869990083145L245.2267431448215 340.7869990083145Q240.99628378579516 341.84461384807116 240.99628378579516 343.53679759168165ZM224.61836255299318 347.1629056137043L224.61836255299318 347.1629056137043L224.61836255299318 347.5859515496069L225.071626055746 347.5859515496069Q229.51360838272367 346.28659617504877 229.51360838272367 345.22898133529225L229.51360838272367 345.22898133529225L229.51360838272367 345.01745836734096L229.30208541477236 345.01745836734096Q226.76380979935655 345.01745836734096 224.61836255299318 347.1629056137043ZM239.30410004218461 346.95138264575303L238.00474466762654 346.95138264575303L237.15865279582124 347.5859515496069L237.15865279582124 348.22052045346084L238.66953113833068 348.22052045346084L239.30410004218461 347.3744285816556L239.30410004218461 346.95138264575303ZM187.8738012631644 353.538812219094L187.8738012631644 353.538812219094L188.50837016701837 354.17338112294794L192.13447818904092 354.17338112294794L192.98057006084622 353.538812219094Q192.98057006084622 352.87402574838984 190.62359984653153 352.87402574838984L190.62359984653153 352.87402574838984Q187.8738012631644 352.87402574838984 187.8738012631644 353.538812219094ZM209.11675075884668 352.87402574838984L207.42456701523614 352.87402574838984L207.0015210793335 353.538812219094L207.0015210793335 354.17338112294794Q208.69370482294403 354.17338112294794 209.11675075884668 353.0855487163411L209.11675075884668 353.0855487163411L209.11675075884668 352.87402574838984ZM224.61836255299318 355.65404189860715L224.61836255299318 355.65404189860715L225.071626055746 356.0770878345098L225.28314902369732 356.0770878345098Q229.30208541477236 354.8079500268019 230.35970025452892 353.75033518704527L230.35970025452892 353.75033518704527L229.9366543186263 352.87402574838984L228.6675165109184 352.87402574838984Q224.61836255299318 353.75033518704527 224.61836255299318 355.65404189860715ZM184.70095674389466 354.5964270588505L183.40160136933656 354.5964270588505L182.5555094975313 355.23099596270447L182.5555094975313 355.65404189860715L184.70095674389466 355.65404189860715L185.33552564774863 355.23099596270447L184.70095674389466 354.5964270588505ZM200.6256144739438 359.03840938582823L200.6256144739438 359.03840938582823L193.1920930287975 359.6729782896822L188.50837016701837 358.61536344992555L186.81618642340783 358.61536344992555Q182.34398652957998 359.03840938582823 182.34398652957998 360.33776476038634L182.34398652957998 360.33776476038634L182.34398652957998 360.5492877283376Q182.34398652957998 361.60690256809426 195.94189161216462 362.4529944398995L195.94189161216462 362.4529944398995Q201.6832293137004 362.4529944398995 213.16590471677188 357.7692715781203L213.16590471677188 357.7692715781203L213.58895065267453 357.557748610169L213.58895065267453 356.7116567383637L213.16590471677188 356.7116567383637Q210.5974115345059 356.7116567383637 200.6256144739438 359.03840938582823ZM319.1691292272319 217.10649789049455L319.1691292272319 217.10649789049455L333.1900802457192 219.88651404071186Q336.8161882677417 219.88651404071186 345.51884752059595 226.05089767815025L345.51884752059595 226.05089767815025L346.3649393924012 226.05089767815025Q346.5764623603525 217.7712843611987 347.8758177349106 217.7712843611987L347.8758177349106 217.7712843611987Q354.2517243403003 220.09803700866317 355.5208621480082 220.09803700866317L355.5208621480082 220.09803700866317L359.75132150703456 220.09803700866317L363.1659065611058 219.88651404071186L363.5889524970084 220.52108294456582L363.3774295290571 221.7902207522737L363.3774295290571 248.98603091744303Q363.3774295290571 251.34300113175772 361.8967687533979 252.82366190741692L361.8967687533979 252.82366190741692Q363.5889524970084 254.51584565102746 363.5889524970084 255.99650642668666Q363.5889524970084 257.47716720234587 362.31981468930053 259.62261444870927L362.31981468930053 259.62261444870927L362.9543835931545 263.21850490388164Q362.9543835931545 265.7869980861476 361.68524578544657 265.7869980861476L361.68524578544657 265.7869980861476L356.15543105186214 264.94090621434236L355.94390808391086 264.94090621434236L352.9523689657422 265.7869980861476L352.5293230298396 265.7869980861476Q351.6832311580343 265.7869980861476 349.77952444647246 256.6310753305406L349.77952444647246 256.6310753305406Q349.77952444647246 253.66975377922222 347.21103126420644 251.34300113175772L347.21103126420644 251.34300113175772Q344.4612326808393 247.2938471738325 344.4612326808393 245.81318639817326L344.4612326808393 245.81318639817326L345.73037048854724 245.39014046227064L345.73037048854724 245.17861749431933Q342.5575259692775 242.61012431205336 341.9229570654235 239.43727979278358L341.9229570654235 239.43727979278358Q333.1900802457192 230.7044029730792 327.05591417513097 230.7044029730792L327.05591417513097 230.7044029730792L325.5450358326216 230.7044029730792Q323.2182831851571 230.7044029730792 304.3020863369393 235.17660286690705L304.3020863369393 235.17660286690705Q302.6099025933288 236.44574067461497 298.77227160335485 243.2446932159073L298.77227160335485 243.2446932159073Q294.7533352122798 248.5629849815404 294.7533352122798 253.45823081127088L294.7533352122798 253.45823081127088Q296.02247301998773 267.0561358938555 298.1377026995009 267.0561358938555L298.1377026995009 267.0561358938555Q300.9177188497182 274.2781343710505 304.72513227284196 275.7587951467097L304.72513227284196 275.7587951467097Q305.3597011766959 276.8164099864663 309.8319010705237 277.8740248262229L309.8319010705237 277.8740248262229Q312.7932226218422 280.6540409764402 322.3721913133518 284.6729773675152L322.3721913133518 284.6729773675152Q322.3721913133518 285.5492868061707 324.487420992865 285.760809774122L324.487420992865 285.760809774122L327.05591417513097 284.88450033546656Q328.74809791874145 285.33776383821936 328.74809791874145 285.760809774122L328.74809791874145 285.760809774122L328.74809791874145 285.9723327420733L327.9020060469362 286.81842461387856L327.9020060469362 287.4529935177325Q330.86332759825467 291.04888397290495 335.1240045241312 291.04888397290495L335.1240045241312 291.04888397290495L335.1240045241312 290.8373610049536L331.074850566206 287.4529935177325L331.074850566206 287.2414705497812Q332.97855727776783 287.2414705497812 344.6727556487907 294.6749919949275L344.6727556487907 294.6749919949275Q362.31981468930053 311.02269566087926 362.31981468930053 315.4948955547071L362.31981468930053 315.4948955547071Q365.281136240619 328.45823173343786 365.281136240619 331.63107625270754L365.281136240619 331.63107625270754Q363.3774295290571 347.79747451755827 361.68524578544657 347.79747451755827L361.68524578544657 347.79747451755827L356.5784769877648 356.7116567383637Q341.9229570654235 365.6258389591693 339.35446388315756 365.6258389591693L339.35446388315756 365.6258389591693Q314.9386698682055 360.33776476038634 306.8705795192053 357.13470267426635L306.8705795192053 357.13470267426635Q290.281135318452 341.6330908801199 290.281135318452 338.85307472990246L290.281135318452 338.85307472990246L289.4350434466468 338.2185058260486L289.0119975107441 338.4300287939999L289.0119975107441 339.48764363375653L289.0119975107441 351.39336497273064Q289.0119975107441 352.87402574838984 281.3669530976465 352.87402574838984L281.3669530976465 352.87402574838984L277.5293221076726 352.87402574838984L274.35647758840287 353.96185815499655Q272.87581681274366 353.96185815499655 270.518846598429 351.6048879406819L270.518846598429 351.6048879406819L270.518846598429 351.39336497273064L271.57646143818556 349.70118122912004Q273.08733978069495 314.0142347790479 275.2025694602081 314.0142347790479L275.2025694602081 314.0142347790479L275.6256153961108 314.0142347790479L279.4632463860847 314.64880368290187Q280.52086122584126 314.64880368290187 281.5784760655978 314.0142347790479L281.5784760655978 314.0142347790479L284.32827464896496 314.64880368290187L285.80893542462417 314.2257577469992L286.68524486327965 314.2257577469992Q287.5313367350849 314.64880368290187 290.4926582864033 320.3901413844376L290.4926582864033 320.3901413844376Q298.56074863540357 330.573461412951 304.93665524079324 339.9409071365093L304.93665524079324 339.9409071365093Q305.78274711259854 339.9409071365093 310.2549470064264 345.6520272711948L310.2549470064264 345.6520272711948L323.4298061531084 351.39336497273064L327.2674371430823 351.39336497273064L327.2674371430823 352.2394568445359L327.6904830789849 352.2394568445359L328.74809791874145 351.6048879406819L329.17114385464413 351.6048879406819Q330.86332759825467 352.87402574838984 332.34398837391393 352.87402574838984L332.34398837391393 352.87402574838984L333.6131261816218 352.87402574838984Q339.35446388315756 352.66250278043844 339.35446388315756 351.39336497273064L339.35446388315756 351.39336497273064L339.35446388315756 350.97031903682796L335.1240045241312 350.97031903682796L332.5555113418652 350.7587960688767Q332.76703430981655 349.91270419707143 347.6642947669593 347.5859515496069L347.6642947669593 347.5859515496069Q351.0486622541804 347.5859515496069 354.2517243403003 335.68023021063277L354.2517243403003 335.68023021063277Q354.2517243403003 331.84259922065894 356.15543105186214 330.15041547704834L356.15543105186214 330.15041547704834L356.15543105186214 329.3043236052431Q352.5293230298396 318.03317117012284 348.0873407028619 314.64880368290187L348.0873407028619 314.64880368290187Q345.51884752059595 310.176603789074 328.74809791874145 304.22374311958697L328.74809791874145 304.22374311958697Q317.68846845157265 299.99328376056064 310.88951591028035 294.2519460590249L310.88951591028035 294.2519460590249Q300.9177188497182 291.2604069408562 299.4068405072088 287.66451648568386L299.4068405072088 287.66451648568386Q298.1377026995009 284.88450033546656 289.64656641459806 278.538811296927L289.64656641459806 278.538811296927Q285.80893542462417 266.84461292590424 281.3669530976465 260.4687063205145L281.3669530976465 260.4687063205145Q279.0099828833318 251.1012605969562 279.0099828833318 240.70641760049148L279.0099828833318 240.70641760049148Q280.73238419379254 233.69594209124784 294.33028927637724 221.36717481637106L294.33028927637724 221.36717481637106Q302.1868566574261 217.10649789049455 319.1691292272319 217.10649789049455ZM294.33028927637724 224.57023690249102L294.33028927637724 224.57023690249102L296.868564891793 224.57023690249102Q298.56074863540357 224.57023690249102 312.58169965389084 220.94412888046844L312.58169965389084 220.94412888046844Q317.68846845157265 220.09803700866317 317.68846845157265 219.2519451368579L317.68846845157265 219.2519451368579L316.84237657976735 219.0404221689066Q294.33028927637724 220.94412888046844 294.33028927637724 224.57023690249102ZM350.4140933503264 221.7902207522737L350.4140933503264 221.7902207522737L350.2025703823751 222.63631262407898L350.2025703823751 223.27088152793291Q350.2025703823751 224.57023690249102 351.8947541259856 224.57023690249102L351.8947541259856 224.57023690249102L355.5208621480082 224.57023690249102L355.5208621480082 224.3587139345397Q353.37541490164483 221.7902207522737 350.4140933503264 221.7902207522737ZM300.7061958817669 232.42680428353992L300.7061958817669 232.42680428353992L301.12924181766954 232.42680428353992Q303.2444714971827 232.42680428353992 311.10103887823163 228.58917329356603L311.10103887823163 228.58917329356603L316.84237657976735 226.47394361405287L316.84237657976735 226.68546658200418L316.20780767591344 227.95460438971207L317.899991419524 227.95460438971207L319.1691292272319 227.53155845380945L319.1691292272319 226.68546658200418L318.7460832913292 226.05089767815025L318.7460832913292 224.78175987044233L318.3230373554266 224.78175987044233Q309.8319010705237 227.32003548585814 304.3020863369393 230.06983406922524L304.3020863369393 230.06983406922524Q300.7061958817669 230.7044029730792 300.7061958817669 232.42680428353992ZM336.60466529979044 226.47394361405287L336.60466529979044 226.47394361405287L332.97855727776783 226.47394361405287Q332.97855727776783 226.8969895499555 339.35446388315756 228.58917329356603L339.35446388315756 228.58917329356603L340.4120787229141 228.58917329356603L340.86534222566695 228.37765032561472L340.86534222566695 227.95460438971207Q340.2005557549628 226.47394361405287 336.60466529979044 226.47394361405287ZM351.6832311580343 226.68546658200418L351.26018522213167 226.68546658200418L350.83713928622905 227.53155845380945L350.83713928622905 227.95460438971207L351.0486622541804 229.22374219742L351.6832311580343 229.22374219742L352.31780006188825 228.58917329356603L352.31780006188825 227.53155845380945L351.6832311580343 226.68546658200418ZM295.3879041161338 229.64678813332262L295.3879041161338 229.64678813332262L295.3879041161338 229.85831110127396Q295.3879041161338 230.4928800051279 296.23399598793907 230.4928800051279L296.23399598793907 230.4928800051279Q297.29161082769565 230.06983406922524 297.71465676359827 229.01221922946868L297.71465676359827 229.01221922946868L297.71465676359827 228.58917329356603Q295.81095005203645 228.58917329356603 295.3879041161338 229.64678813332262ZM343.6151408090341 230.7044029730792L343.6151408090341 230.7044029730792L344.6727556487907 231.79223537968596L345.73037048854724 231.79223537968596L346.3649393924012 231.15766647583206L346.3649393924012 230.4928800051279Q346.3649393924012 229.85831110127396 344.6727556487907 229.22374219742L344.6727556487907 229.22374219742Q343.6151408090341 229.64678813332262 343.6151408090341 230.7044029730792ZM354.46324730825165 233.69594209124784L354.46324730825165 233.69594209124784L355.09781621210556 234.11898802715046L355.09781621210556 234.33051099510178L354.2517243403003 235.38812583485839L354.2517243403003 236.02269473871232Q354.2517243403003 236.44574067461497 355.94390808391086 237.0803095784689L355.94390808391086 237.0803095784689Q356.3669540198135 238.80271088892962 357.2130458916187 239.01423385688094L357.2130458916187 239.01423385688094L357.8476147954727 239.01423385688094L357.8476147954727 238.1681419850757L357.63609182752134 237.50335551437152L357.63609182752134 236.65726364256628L358.2706607313753 236.65726364256628L359.3282755711319 237.50335551437152L359.75132150703456 237.50335551437152L359.96284447498584 236.23421770666366L359.96284447498584 235.811171770761Q358.48218369932664 229.85831110127396 357.8476147954727 229.85831110127396L357.8476147954727 229.85831110127396L356.5784769877648 229.85831110127396Q354.46324730825165 230.7044029730792 354.46324730825165 233.69594209124784ZM294.1187663084259 239.01423385688094L294.1187663084259 239.01423385688094L295.3879041161338 240.28337166458886L295.81095005203645 240.28337166458886Q298.3492256674523 239.8603257286862 300.49467291381563 237.50335551437152L300.49467291381563 237.50335551437152L299.8601040099617 237.0803095784689L297.503133795647 237.0803095784689Q295.1763811481825 237.0803095784689 294.1187663084259 239.01423385688094ZM285.1743665207702 237.2918325464202L284.7513205848676 237.2918325464202L284.1167516810136 237.95661901712438L284.1167516810136 238.1681419850757L285.1743665207702 238.1681419850757L285.1743665207702 237.2918325464202ZM290.4926582864033 247.2938471738325L290.4926582864033 247.2938471738325L290.4926582864033 247.50537014178383L290.915704222306 247.50537014178383Q294.7533352122798 243.87926211976122 294.7533352122798 241.12946353639413L294.7533352122798 241.12946353639413L294.1187663084259 240.49489463254017Q291.55027312615994 240.49489463254017 290.4926582864033 247.2938471738325ZM359.96284447498584 241.9755554081994L359.75132150703456 241.12946353639413L358.6937066672779 241.12946353639413L358.6937066672779 241.55250947229675Q359.3282755711319 242.82164728000467 359.96284447498584 242.82164728000467L359.96284447498584 242.82164728000467L359.96284447498584 241.9755554081994ZM357.63609182752134 243.2446932159073L357.63609182752134 242.61012431205336L357.0015229236674 243.2446932159073L357.63609182752134 243.2446932159073ZM355.09781621210556 243.6677391518099L354.2517243403003 243.6677391518099L353.37541490164483 244.30230805566387L353.37541490164483 244.5440485904654L354.2517243403003 245.39014046227064L355.09781621210556 245.39014046227064L355.94390808391086 244.5440485904654L355.94390808391086 244.30230805566387L355.09781621210556 243.6677391518099ZM359.75132150703456 245.81318639817326L359.1167526031806 245.81318639817326L358.2706607313753 246.44775530202722L358.2706607313753 247.92841607768645L358.48218369932664 249.40907685334565L359.1167526031806 249.40907685334565L359.75132150703456 245.81318639817326ZM355.5208621480082 249.83212278924833L354.67477027620293 249.40907685334565L354.2517243403003 249.40907685334565L354.2517243403003 249.83212278924833L354.67477027620293 250.46669169310223L355.5208621480082 250.46669169310223L355.5208621480082 249.83212278924833ZM354.0099838054988 255.15041455488142L354.0099838054988 255.15041455488142L354.0099838054988 258.5649996089527L354.46324730825165 258.9880455448553L354.67477027620293 258.9880455448553Q356.3669540198135 258.9880455448553 356.5784769877648 257.47716720234587L356.5784769877648 257.47716720234587Q355.5208621480082 254.93889158693008 355.5208621480082 253.24670784331954L355.5208621480082 253.24670784331954L355.09781621210556 253.24670784331954Q354.0099838054988 253.66975377922222 354.0099838054988 255.15041455488142ZM355.5208621480082 261.9493670961738L355.09781621210556 261.9493670961738L354.46324730825165 262.58393600002773L355.5208621480082 263.21850490388164L356.15543105186214 263.21850490388164L356.3669540198135 262.58393600002773L355.5208621480082 261.9493670961738ZM289.64656641459806 271.07507228493057L289.64656641459806 271.07507228493057L289.64656641459806 272.58595062743996L290.4926582864033 273.43204249924526L292.1848420300139 273.43204249924526L292.1848420300139 272.58595062743996Q290.70418125435464 271.07507228493057 289.64656641459806 271.07507228493057ZM293.6957203725233 276.8164099864663L293.6957203725233 276.8164099864663L293.48419740457194 276.8164099864663L293.48419740457194 277.8740248262229Q297.9261797315496 281.07708691234285 299.4068405072088 281.07708691234285L299.4068405072088 281.07708691234285L300.2831499458643 281.07708691234285L300.2831499458643 280.23099504053755Q297.29161082769565 278.0855477941742 293.6957203725233 276.8164099864663ZM320.8915305376926 284.6729773675152L320.2569616338386 284.03840846366126L318.3230373554266 284.03840846366126Q318.53456032337795 284.88450033546656 320.01522109903715 284.88450033546656L320.01522109903715 284.88450033546656L320.8915305376926 284.88450033546656L320.8915305376926 284.6729773675152ZM322.3721913133518 287.2414705497812L322.3721913133518 287.2414705497812L321.7376224094979 287.66451648568386Q322.5837142813031 288.9336542933918 328.74809791874145 291.68345287675885L328.74809791874145 291.68345287675885L328.74809791874145 290.8373610049536Q325.75655880057286 288.0875624215865 322.3721913133518 287.2414705497812ZM327.2674371430823 299.99328376056064L327.2674371430823 299.99328376056064L326.17960473647554 299.99328376056064L326.17960473647554 301.05089860031717Q328.95962088669285 302.3200364080251 332.97855727776783 302.5315593759764L332.97855727776783 302.5315593759764Q332.97855727776783 303.37765124778167 334.4894356202773 303.37765124778167L334.4894356202773 303.37765124778167L336.18161936388776 303.37765124778167L336.18161936388776 303.16612827983033Q336.18161936388776 301.2624215682685 327.2674371430823 299.99328376056064ZM341.9229570654235 306.3691903659503L341.4999111295209 305.73462146209636L340.86534222566695 305.73462146209636L340.86534222566695 306.3691903659503L341.4999111295209 307.0037592698043L341.9229570654235 307.0037592698043L341.9229570654235 306.3691903659503ZM277.5293221076726 327.6121398616325L277.5293221076726 327.6121398616325L276.68323023586737 327.6121398616325Q275.6256153961108 330.7849843809023 275.6256153961108 335.68023021063277L275.6256153961108 335.68023021063277L276.0486613320134 338.4300287939999L276.2601842999647 338.4300287939999Q278.1638910115266 338.4300287939999 278.1638910115266 336.7378450503894L278.1638910115266 336.7378450503894Q277.5293221076726 331.84259922065894 277.5293221076726 327.6121398616325ZM282.00152200150046 333.7765234990709L282.00152200150046 333.7765234990709Q280.9439071617439 337.37241395424326 279.67476935403596 338.4300287939999L279.67476935403596 338.4300287939999L280.52086122584126 340.7869990083145L280.52086122584126 346.28659617504877L280.52086122584126 347.5859515496069Q280.52086122584126 349.0666123252661 281.3669530976465 349.0666123252661L281.3669530976465 349.0666123252661L282.6360909053544 349.0666123252661L283.2706598092084 348.43204342141223L283.2706598092084 347.5859515496069Q283.2706598092084 333.7765234990709 282.00152200150046 333.7765234990709ZM293.6957203725233 339.06459769785386L293.6957203725233 339.06459769785386L293.48419740457194 339.06459769785386L293.48419740457194 339.48764363375653Q294.33028927637724 342.9022286878277 296.6570419238417 342.9022286878277L296.6570419238417 342.9022286878277L296.6570419238417 342.4791827519251Q295.1763811481825 339.06459769785386 293.6957203725233 339.06459769785386ZM276.2601842999647 343.74832055963304L276.2601842999647 343.74832055963304L276.68323023586737 344.1713664955356L276.89475320381865 344.1713664955356Q277.5293221076726 344.1713664955356 277.95236804357523 339.9409071365093L277.95236804357523 339.9409071365093L277.5293221076726 339.48764363375653Q276.68323023586737 339.48764363375653 276.2601842999647 343.74832055963304ZM301.12924181766954 340.9985219762659L301.12924181766954 340.9985219762659L300.7061958817669 340.9985219762659L300.7061958817669 341.2100449442172Q302.39837962537746 344.382889463487 304.090563368988 344.382889463487L304.090563368988 344.382889463487L304.090563368988 343.74832055963304Q302.39837962537746 341.84461384807116 301.12924181766954 340.9985219762659ZM357.2130458916187 344.5944124314383L356.15543105186214 344.5944124314383L355.09781621210556 345.6520272711948L355.94390808391086 346.52833670985035L357.0015229236674 346.52833670985035L357.8476147954727 345.6520272711948L357.8476147954727 345.22898133529225L357.2130458916187 344.5944124314383ZM313.66953206049766 349.48965826116876L313.66953206049766 349.48965826116876L313.66953206049766 349.70118122912004Q314.0925779964003 350.7587960688767 315.15019283615686 350.7587960688767L315.15019283615686 350.7587960688767Q314.7271469002542 349.48965826116876 313.66953206049766 349.48965826116876ZM303.45599446513404 349.91270419707143L303.45599446513404 349.91270419707143L301.97533368947484 349.70118122912004L301.97533368947484 349.91270419707143Q304.090563368988 354.5964270588505 312.58169965389084 357.13470267426635L312.58169965389084 357.13470267426635Q319.59217516313447 359.6729782896822 332.34398837391393 362.4529944398995L332.34398837391393 362.4529944398995Q334.9124815561799 364.14517818351 336.8161882677417 364.3567011514614L336.8161882677417 364.3567011514614L338.7198949793036 364.3567011514614Q344.0381867449367 362.87604037580206 344.0381867449367 360.5492877283376L344.0381867449367 360.5492877283376L324.9104669287676 359.03840938582823Q308.1397173269132 353.75033518704527 303.45599446513404 349.91270419707143ZM340.86534222566695 356.0770878345098L340.86534222566695 356.0770878345098L340.86534222566695 356.5001337704124L341.4999111295209 356.92317970631507L342.5575259692775 356.92317970631507Q350.2025703823751 356.92317970631507 351.0486622541804 354.8079500268019L351.0486622541804 354.8079500268019L350.2025703823751 354.3849040908992L348.93343257466717 354.3849040908992Q346.5764623603525 354.3849040908992 340.86534222566695 356.0770878345098ZM335.75857342798514 361.39537960014286L334.4894356202773 361.39537960014286L334.4894356202773 360.5492877283376L334.9124815561799 360.5492877283376Q336.3931423318391 360.5492877283376 336.3931423318391 361.39537960014286L336.3931423318391 361.39537960014286L335.75857342798514 361.39537960014286Z " fill="#ffffff" transform="matrix(1.2286588271007661,0,0,1.2286588271007661,0,-57.079997906959505)"/><path d="M518.4036152974079 216.04888305073797L518.4036152974079 216.04888305073797L519.0381842012619 215.62583711483535Q530.7021650054344 216.8949749225432 559.4088535131132 219.0404221689066L559.4088535131132 219.0404221689066Q563.0047439682855 220.73260591251713 590.8351230373088 223.48240449588423L590.8351230373088 223.48240449588423Q601.6832295365264 226.05089767815025 601.6832295365264 229.22374219742L601.6832295365264 229.22374219742Q600.8371376647211 232.2152813155886 594.6727540272827 239.6488027607349L594.6727540272827 239.6488027607349Q594.6727540272827 240.28337166458886 584.8822623678218 252.61213893946558L584.8822623678218 252.61213893946558Q584.8822623678218 254.51584565102746 573.4298045316004 264.94090621434236L573.4298045316004 264.94090621434236L571.0728343172858 268.1137507336121L571.0728343172858 268.74831963746607Q574.2758964034058 268.74831963746607 584.8822623678218 266.6330899579529L584.8822623678218 266.6330899579529Q588.5083703898443 266.6330899579529 602.9523673442343 275.3357492108071L602.9523673442343 275.3357492108071Q606.7899983342081 279.5964261366836 610.5974117573319 291.8949758447102L610.5974117573319 291.8949758447102L610.5974117573319 294.2519460590249Q610.5974117573319 322.50537106395075 605.7021659276014 329.3043236052431L605.7021659276014 329.3043236052431Q601.6832295365264 340.9985219762659 583.6131245601139 353.538812219094L583.6131245601139 353.538812219094Q572.5837126597952 358.82688641787695 551.3105455972627 363.510609279656L551.3105455972627 363.510609279656Q548.7722699818469 364.3567011514614 542.8194093123599 364.3567011514614L542.8194093123599 364.3567011514614L541.3387485367007 364.3567011514614L540.0696107289928 364.77974708736394Q530.2791190695318 364.77974708736394 523.6916894961907 360.33776476038634L523.6916894961907 360.33776476038634L523.6916894961907 359.6729782896822Q524.3564759668949 359.2499323537795 527.9523664220674 350.97031903682796L527.9523664220674 350.97031903682796L528.3754123579699 350.97031903682796L532.8476122517977 350.97031903682796L535.1743648992623 350.97031903682796Q553.2444698756748 350.97031903682796 562.7932210003343 341.4215679121685L562.7932210003343 341.4215679121685L581.074848944698 329.72736954114566Q591.4696919411628 320.3901413844376 592.5575243477695 316.34098742651236L592.5575243477695 316.34098742651236Q596.7879837067959 309.54203488522006 596.7879837067959 294.04042309107354L596.7879837067959 294.04042309107354Q596.5764607388446 291.8949758447102 596.1534148029419 291.8949758447102L596.1534148029419 291.8949758447102L596.7879837067959 290.20279210109965Q596.7879837067959 285.9723327420733 592.5575243477695 283.40383955980735L592.5575243477695 283.40383955980735Q590.8351230373088 279.17338020078097 585.9700947744285 279.17338020078097L585.9700947744285 279.17338020078097L580.6518030087955 279.17338020078097Q576.3911260829188 279.17338020078097 576.3911260829188 280.23099504053755L576.3911260829188 280.23099504053755L576.3911260829188 280.6540409764402Q585.0937853357731 280.6540409764402 589.9890311655035 284.88450033546656L589.9890311655035 284.88450033546656L589.9890311655035 285.33776383821936L589.3544622616496 285.760809774122Q587.4507555500877 285.760809774122 584.0361704960164 282.7692706559534L584.0361704960164 282.7692706559534L582.1324637844547 282.55774768800205Q566.2078060544054 282.55774768800205 543.2424552482626 293.4058541872196L543.2424552482626 293.4058541872196L541.1272255687493 294.6749919949275L540.0696107289928 294.2519460590249L540.0696107289928 292.55976231541433Q540.0696107289928 291.04888397290495 537.9543810494796 288.9336542933918L537.9543810494796 288.9336542933918L537.9543810494796 288.72213132544044Q537.9543810494796 288.0875624215865 542.8194093123599 277.23945592236896L542.8194093123599 277.23945592236896Q543.6655011841651 273.64356546719654 546.6570403023338 270.017457445174L546.6570403023338 270.017457445174L555.359699555188 256.84259829849196Q560.2549453849184 246.2362323340759 564.696927711896 243.87926211976122L564.696927711896 243.87926211976122Q566.6308519903082 241.76403244024806 566.6308519903082 239.8603257286862L566.6308519903082 239.8603257286862L566.6308519903082 239.22575682483225Q564.2738817759935 237.50335551437152 562.581698032383 237.50335551437152L562.581698032383 237.50335551437152L522.8455976243855 236.65726364256628Q520.9418909128237 236.65726364256628 520.518844976921 233.06137318739388L520.518844976921 233.06137318739388L520.518844976921 232.2152813155886L520.7303679448723 231.36918944378334L520.7303679448723 230.4928800051279Q520.0957990410184 228.80069626151737 518.4036152974079 216.04888305073797ZM527.106274550262 218.40585326505263L527.106274550262 218.40585326505263L526.2601826784568 219.2519451368579L526.2601826784568 221.36717481637106L526.6832286143595 221.36717481637106L529.4330271977265 221.36717481637106L529.8560731336291 221.36717481637106L535.1743648992623 221.7902207522737L536.0204567710675 220.94412888046844Q532.2130433479438 218.40585326505263 527.106274550262 218.40585326505263ZM521.1534138807749 221.7902207522737L521.1534138807749 221.7902207522737Q521.5764598166776 222.8478355920303 522.8455976243855 222.8478355920303L522.8455976243855 222.8478355920303L523.2686435602882 222.21326668817636L523.2686435602882 221.7902207522737L522.6340746564342 220.94412888046844L521.7879827846289 220.94412888046844Q521.1534138807749 220.94412888046844 521.1534138807749 221.7902207522737ZM547.503132174139 222.8478355920303L547.9261781100416 222.42478965612767L547.2916092061878 222.42478965612767L547.2916092061878 222.8478355920303L547.503132174139 222.8478355920303ZM588.931416325747 225.8393747101989L588.2968474218931 225.20480580634495L583.6131245601139 225.20480580634495Q583.6131245601139 226.47394361405287 587.6622785180391 226.68546658200418L587.6622785180391 226.68546658200418L588.0853244539417 226.68546658200418L588.931416325747 226.05089767815025L588.931416325747 225.8393747101989ZM539.4350418251388 226.47394361405287L539.4350418251388 226.47394361405287Q550.6759766934088 227.7430814217608 564.2738817759935 227.7430814217608L564.2738817759935 227.7430814217608L566.8423749582594 227.7430814217608Q566.8423749582594 226.26242064610153 551.3105455972627 225.6278517422476L551.3105455972627 225.6278517422476L545.5994254625772 225.6278517422476Q539.4350418251388 225.6278517422476 539.4350418251388 226.47394361405287ZM529.4330271977265 226.47394361405287L528.3754123579699 226.47394361405287L527.5293204861647 226.68546658200418Q527.5293204861647 228.58917329356603 538.1659040174309 229.22374219742L538.1659040174309 229.22374219742L538.5889499533336 229.01221922946868L538.5889499533336 228.58917329356603Q535.8089338031162 226.47394361405287 529.4330271977265 226.47394361405287L529.4330271977265 226.47394361405287ZM595.3073229311367 229.01221922946868L595.3073229311367 229.01221922946868L595.3073229311367 229.22374219742Q595.518845899088 230.06983406922524 596.9995066747472 230.06983406922524L596.9995066747472 230.06983406922524L597.8455985465525 230.06983406922524Q598.6916904183577 230.06983406922524 599.3564768890619 229.22374219742L599.3564768890619 229.22374219742Q599.3564768890619 227.95460438971207 596.7879837067959 227.95460438971207L596.7879837067959 227.95460438971207Q595.9418918349907 228.37765032561472 595.3073229311367 229.01221922946868ZM542.1848404085059 228.37765032561472L542.1848404085059 228.37765032561472L541.9733174405546 228.58917329356603L541.9733174405546 228.80069626151737Q541.9733174405546 229.85831110127396 549.4068388857008 229.85831110127396L549.4068388857008 229.85831110127396L557.0518832987984 229.85831110127396Q557.0518832987984 228.58917329356603 542.1848404085059 228.37765032561472ZM568.3230357339187 230.06983406922524L568.3230357339187 230.06983406922524L562.7932210003343 230.06983406922524L562.7932210003343 230.4928800051279L573.4298045316004 232.2152813155886L584.0361704960164 231.36918944378334L584.0361704960164 230.94614350788072Q580.0172341049415 230.06983406922524 568.3230357339187 230.06983406922524ZM524.1147354320934 231.79223537968596L524.1147354320934 231.79223537968596L524.1147354320934 232.2152813155886Q524.1147354320934 233.90746505919915 532.8476122517977 233.90746505919915L532.8476122517977 233.90746505919915L541.550271504652 233.90746505919915L541.550271504652 233.2728961553452Q541.550271504652 232.42680428353992 532.4245663158952 232.2152813155886L532.4245663158952 232.2152813155886Q532.4245663158952 231.15766647583206 527.106274550262 230.94614350788072L527.106274550262 230.94614350788072L526.2601826784568 230.94614350788072Q524.3564759668949 230.94614350788072 524.1147354320934 231.79223537968596ZM549.6183618536522 233.2728961553452L549.6183618536522 233.2728961553452L545.1763795266745 233.2728961553452Q545.1763795266745 234.33051099510178 550.6759766934088 234.33051099510178L550.6759766934088 234.33051099510178L551.3105455972627 234.33051099510178Q551.3105455972627 233.2728961553452 549.6183618536522 233.2728961553452ZM592.1042608450167 236.02269473871232L590.8351230373088 236.02269473871232L588.931416325747 237.50335551437152Q589.565985229601 240.49489463254017 591.0466460052601 240.49489463254017L591.0466460052601 240.49489463254017Q592.5575243477695 238.80271088892962 592.5575243477695 237.50335551437152L592.5575243477695 237.50335551437152L592.5575243477695 236.44574067461497L592.1042608450167 236.02269473871232ZM572.3721896918439 239.01423385688094L571.0728343172858 239.01423385688094L570.6497883813831 239.6488027607349L570.6497883813831 240.07184869663752L571.9491437559412 240.07184869663752L572.3721896918439 239.6488027607349L572.3721896918439 239.01423385688094ZM572.3721896918439 243.6677391518099L572.3721896918439 243.6677391518099L572.3721896918439 244.30230805566387L572.7952356277465 244.30230805566387Q575.3335112431623 244.30230805566387 576.8141720188215 240.49489463254017L576.8141720188215 240.49489463254017L576.3911260829188 240.28337166458886L576.1796031149676 240.28337166458886Q572.3721896918439 241.34098650434544 572.3721896918439 243.6677391518099ZM588.2968474218931 243.6677391518099L588.2968474218931 243.2446932159073L587.2392325821364 243.2446932159073L587.2392325821364 243.87926211976122L587.8738014859904 243.87926211976122L588.2968474218931 243.6677391518099ZM586.1816177423798 245.81318639817326L586.1816177423798 245.17861749431933L585.7585718064772 245.17861749431933L585.7585718064772 245.81318639817326L586.1816177423798 245.81318639817326ZM573.4298045316004 258.5649996089527L573.4298045316004 258.5649996089527L573.2182815636492 259.1995685128066L573.6413274995518 259.83413741666055Q578.0833098265294 258.776522576904 582.5555097203572 252.61213893946558L582.5555097203572 252.61213893946558L583.6131245601139 249.83212278924833L583.4016015921625 249.620599821297L582.1324637844547 249.620599821297Q579.5941881690388 249.620599821297 573.4298045316004 258.5649996089527ZM562.1586520964803 258.9880455448553L562.1586520964803 258.9880455448553L562.581698032383 258.9880455448553Q565.7847601185028 257.0541212664433 565.7847601185028 254.7273686189788L565.7847601185028 254.7273686189788L565.7847601185028 254.51584565102746L565.3617141826003 254.51584565102746Q562.1586520964803 255.3619375228327 562.1586520964803 258.9880455448553ZM566.6308519903082 258.14195367305007L566.6308519903082 258.14195367305007L566.6308519903082 258.9880455448553L567.265420894162 258.9880455448553Q568.7460816698213 257.6886901702972 568.7460816698213 256.6310753305406L568.7460816698213 256.6310753305406L568.53455870187 256.41955236258934Q567.6884668300647 256.84259829849196 566.6308519903082 258.14195367305007ZM572.5837126597952 261.3147981923198L572.1606667238925 261.3147981923198L571.4958802531885 261.9493670961738L571.4958802531885 263.00698193593036L572.1606667238925 263.00698193593036L572.5837126597952 262.58393600002773L572.5837126597952 261.3147981923198ZM549.6183618536522 268.74831963746607L549.6183618536522 268.74831963746607L549.6183618536522 269.1713655733687L550.0414077895548 269.5944115092713L551.9753320679669 269.5944115092713L555.9942684590419 266.42156699000157L556.2057914269932 265.1524291822937L556.2057914269932 264.69916567954084L555.7827454910905 264.2761197436382L555.359699555188 264.2761197436382Q551.9753320679669 265.1524291822937 549.6183618536522 268.74831963746607ZM568.7460816698213 275.7587951467097L568.7460816698213 275.7587951467097L568.7460816698213 275.97031811466104L568.9576046377726 275.97031811466104L577.6602638906268 273.2205195312939Q588.0853244539417 274.2781343710505 590.200554133455 274.91270327490446L590.200554133455 274.91270327490446Q591.2581689732115 274.91270327490446 591.4696919411628 274.06661140309916L591.4696919411628 274.06661140309916L591.681214909114 274.06661140309916Q596.9995066747472 278.0855477941742 599.9910457929159 278.0855477941742L599.9910457929159 278.0855477941742L600.8371376647211 278.0855477941742L601.0486606326724 277.45097889032024L601.0486606326724 277.23945592236896Q601.0486606326724 274.91270327490446 586.3931407103312 271.28659525288185L586.3931407103312 271.28659525288185Q585.7585718064772 271.28659525288185 585.0937853357731 269.5944115092713L585.0937853357731 269.5944115092713L584.0361704960164 268.74831963746607L583.4016015921625 268.74831963746607Q578.2948327944807 268.74831963746607 572.7952356277465 273.8550884351479L572.7952356277465 273.8550884351479Q568.9576046377726 274.91270327490446 568.7460816698213 275.7587951467097ZM565.7847601185028 270.4405033810766L564.9084506798474 269.5944115092713L564.696927711896 269.5944115092713L564.696927711896 270.4405033810766L564.9084506798474 270.65202634902795L565.7847601185028 270.65202634902795L565.7847601185028 270.4405033810766ZM546.6570403023338 275.97031811466104L546.6570403023338 275.97031811466104L546.6570403023338 276.604887018515L546.8685632702851 276.604887018515Q549.6183618536522 275.1242262428558 550.8874996613602 271.7398587556347L550.8874996613602 271.7398587556347L550.4644537254575 271.7398587556347Q548.5607470138956 272.7974735953913 546.6570403023338 275.97031811466104ZM553.4559928436261 276.604887018515L553.4559928436261 276.604887018515L553.4559928436261 277.8740248262229L554.3020847154314 277.8740248262229Q556.8403603308471 277.8740248262229 558.1094981385551 273.8550884351479L558.1094981385551 273.8550884351479L557.4749292347011 273.2205195312939Q555.359699555188 274.06661140309916 553.4559928436261 276.604887018515ZM555.1481765872365 283.40383955980735L555.1481765872365 283.40383955980735L555.1481765872365 283.61536252775863L555.7827454910905 283.61536252775863Q570.0152194775292 280.23099504053755 570.0152194775292 278.75033426487835L570.0152194775292 278.75033426487835L570.0152194775292 278.538811296927L569.3806505736752 278.538811296927Q562.581698032383 279.17338020078097 555.1481765872365 283.40383955980735ZM545.1763795266745 284.03840846366126L545.1763795266745 284.03840846366126L545.1763795266745 284.6729773675152L545.3879024946259 284.88450033546656L545.3879024946259 285.33776383821936Q552.3983780038695 284.03840846366126 555.9942684590419 281.28860988029413L555.9942684590419 281.28860988029413L555.9942684590419 281.07708691234285L555.359699555188 280.23099504053755Q548.1377010779929 281.71165581619675 545.1763795266745 284.03840846366126ZM600.2025687608672 280.23099504053755L600.2025687608672 280.23099504053755L597.8455985465525 280.23099504053755L597.8455985465525 280.6540409764402Q598.9032133863091 283.61536252775863 600.8371376647211 283.61536252775863L600.8371376647211 283.61536252775863L602.3177984403803 283.61536252775863Q604.4330281198935 283.61536252775863 604.8560740557962 282.55774768800205L604.8560740557962 282.55774768800205Q602.9523673442343 280.23099504053755 600.2025687608672 280.23099504053755ZM604.0099821839908 285.9723327420733L603.1638903121856 285.9723327420733L602.9523673442343 286.6069016459273L602.9523673442343 286.81842461387856Q602.9523673442343 288.5106083574891 606.3669523983056 293.1943312192683L606.3669523983056 293.1943312192683L606.1554294303542 297.2132676103433L606.1554294303542 302.1085134400738Q606.1554294303542 304.43526608753825 607.0015213021595 304.6467890554896L607.0015213021595 304.6467890554896L607.4245672380621 304.6467890554896L607.8476131739648 299.99328376056064L607.8476131739648 292.55976231541433Q607.8476131739648 288.9336542933918 604.0099821839908 285.9723327420733L604.0099821839908 285.9723327420733ZM541.550271504652 288.5106083574891L541.550271504652 288.5106083574891L541.550271504652 288.72213132544044L541.9733174405546 289.3567002292944L543.8770241521165 289.3567002292944Q545.8109484305285 289.3567002292944 546.0224713984799 288.5106083574891L546.0224713984799 288.5106083574891L546.0224713984799 287.87603945363514Q545.5994254625772 286.81842461387856 544.3000700880191 286.81842461387856L544.3000700880191 286.81842461387856L543.8770241521165 286.81842461387856Q542.6078863444086 286.81842461387856 541.550271504652 288.5106083574891ZM594.884276995234 289.3567002292944L594.0381851234288 288.5106083574891L594.0381851234288 287.87603945363514L595.3073229311367 289.3567002292944L594.884276995234 289.3567002292944ZM599.5679998570132 294.04042309107354L599.1449539211105 293.6173771551709L598.6916904183577 293.6173771551709L598.6916904183577 294.04042309107354L599.1449539211105 294.6749919949275L599.5679998570132 294.6749919949275L599.5679998570132 294.04042309107354ZM597.8455985465525 305.28135795934355L597.8455985465525 305.28135795934355L597.8455985465525 306.157667397999L598.2686444824551 306.79223630185294Q600.8371376647211 302.5315593759764 600.8371376647211 299.3587148567067L600.8371376647211 299.3587148567067L600.8371376647211 296.79022167444066L600.2025687608672 296.79022167444066Q597.8455985465525 299.57023782465797 597.8455985465525 305.28135795934355ZM607.4245672380621 306.79223630185294L607.4245672380621 306.79223630185294L605.2791199916987 310.811172692928Q605.4906429596501 311.65726456473317 606.3669523983056 312.08031050063585L606.3669523983056 312.08031050063585L606.7899983342081 312.08031050063585Q608.2706591098674 311.4457415967819 608.2706591098674 309.3305119172687L608.2706591098674 309.3305119172687Q608.059136141916 306.79223630185294 607.4245672380621 306.79223630185294ZM599.1449539211105 316.9755563303663L599.1449539211105 316.9755563303663L599.1449539211105 317.398602266269L599.9910457929159 317.398602266269L601.0486606326724 316.1294644585611L601.0486606326724 314.86032665085315L600.4140917288184 314.86032665085315Q599.1449539211105 315.7064185226584 599.1449539211105 316.9755563303663ZM597.2110296426986 323.98603183960995L597.2110296426986 323.98603183960995L597.8455985465525 324.19755480756123L602.1062754724289 321.4477562241941L602.1062754724289 321.02471028829154L601.471706568575 320.60166435238887L601.0486606326724 320.60166435238887Q599.3564768890619 320.60166435238887 597.2110296426986 323.98603183960995ZM588.0853244539417 330.573461412951L588.0853244539417 330.573461412951L588.931416325747 330.573461412951Q591.0466460052601 330.573461412951 593.4036162195748 328.0351857975352L593.4036162195748 328.0351857975352L593.4036162195748 327.6121398616325L592.5575243477695 325.25516964731787L593.4036162195748 323.1399399678047Q591.4696919411628 323.1399399678047 589.565985229601 328.0351857975352L589.565985229601 328.0351857975352Q588.0853244539417 329.5158465731944 588.0853244539417 330.573461412951ZM603.1638903121856 324.6206007434639L602.9523673442343 324.6206007434639L602.3177984403803 325.25516964731787L602.3177984403803 325.46669261526915L603.1638903121856 325.46669261526915L603.1638903121856 324.6206007434639ZM595.3073229311367 331.41955328475626L595.3073229311367 331.41955328475626L595.3073229311367 331.84259922065894L596.7879837067959 332.0541221886102L598.2686444824551 332.0541221886102Q601.471706568575 331.84259922065894 601.471706568575 329.5158465731944L601.471706568575 329.5158465731944Q601.0486606326724 328.45823173343786 599.9910457929159 328.45823173343786L599.9910457929159 328.45823173343786Q597.8455985465525 328.45823173343786 595.3073229311367 331.41955328475626ZM562.1586520964803 345.44050430324353L562.1586520964803 345.44050430324353L562.7932210003343 345.44050430324353Q581.9209408165034 337.37241395424326 581.9209408165034 333.7765234990709L581.9209408165034 333.7765234990709L580.6518030087955 333.7765234990709Q576.1796031149676 335.4687072426815 565.3617141826003 342.9022286878277L565.3617141826003 342.9022286878277Q562.1586520964803 345.01745836734096 562.1586520964803 345.44050430324353ZM595.7303688670393 336.7378450503894L595.7303688670393 336.7378450503894L595.7303688670393 336.9493680183407L596.7879837067959 336.9493680183407Q597.4225526106499 336.9493680183407 598.2686444824551 335.0456613067788L598.2686444824551 335.0456613067788L597.8455985465525 334.62261537087625Q595.7303688670393 335.2571842747301 595.7303688670393 336.7378450503894ZM593.6151391875261 335.0456613067788L593.4036162195748 335.0456613067788L592.5575243477695 335.89175317858405L592.5575243477695 336.10327614653545L593.6151391875261 336.10327614653545L594.2497080913801 335.68023021063277L593.6151391875261 335.0456613067788ZM587.8738014859904 343.53679759168165L587.8738014859904 343.53679759168165L588.0853244539417 343.53679759168165Q590.200554133455 343.53679759168165 592.9805702836723 341.4215679121685L592.9805702836723 341.4215679121685Q592.9805702836723 340.7869990083145 592.1042608450167 340.7869990083145L592.1042608450167 340.7869990083145Q587.8738014859904 341.84461384807116 587.8738014859904 343.53679759168165ZM571.4958802531885 347.1629056137043L571.4958802531885 347.1629056137043L571.4958802531885 347.5859515496069L571.9491437559412 347.5859515496069Q576.3911260829188 346.28659617504877 576.3911260829188 345.22898133529225L576.3911260829188 345.22898133529225L576.3911260829188 345.01745836734096L576.1796031149676 345.01745836734096Q573.6413274995518 345.01745836734096 571.4958802531885 347.1629056137043ZM586.1816177423798 346.95138264575303L584.8822623678218 346.95138264575303L584.0361704960164 347.5859515496069L584.0361704960164 348.22052045346084L585.5470488385258 348.22052045346084L586.1816177423798 347.3744285816556L586.1816177423798 346.95138264575303ZM534.7513189633596 353.538812219094L534.7513189633596 353.538812219094L535.3858878672136 354.17338112294794L539.0119958892362 354.17338112294794L539.8580877610414 353.538812219094Q539.8580877610414 352.87402574838984 537.5011175467267 352.87402574838984L537.5011175467267 352.87402574838984Q534.7513189633596 352.87402574838984 534.7513189633596 353.538812219094ZM555.9942684590419 352.87402574838984L554.3020847154314 352.87402574838984L553.8790387795287 353.538812219094L553.8790387795287 354.17338112294794Q555.5712225231393 354.17338112294794 555.9942684590419 353.0855487163411L555.9942684590419 353.0855487163411L555.9942684590419 352.87402574838984ZM571.4958802531885 355.65404189860715L571.4958802531885 355.65404189860715L571.9491437559412 356.0770878345098L572.1606667238925 356.0770878345098Q576.1796031149676 354.8079500268019 577.2372179547242 353.75033518704527L577.2372179547242 353.75033518704527L576.8141720188215 352.87402574838984L575.5450342111136 352.87402574838984Q571.4958802531885 353.75033518704527 571.4958802531885 355.65404189860715ZM531.5784744440898 354.5964270588505L530.2791190695318 354.5964270588505L529.4330271977265 355.23099596270447L529.4330271977265 355.65404189860715L531.5784744440898 355.65404189860715L532.2130433479438 355.23099596270447L531.5784744440898 354.5964270588505ZM547.503132174139 359.03840938582823L547.503132174139 359.03840938582823L540.0696107289928 359.6729782896822L535.3858878672136 358.61536344992555L533.6937041236031 358.61536344992555Q529.2215042297753 359.03840938582823 529.2215042297753 360.33776476038634L529.2215042297753 360.33776476038634L529.2215042297753 360.5492877283376Q529.2215042297753 361.60690256809426 542.8194093123599 362.4529944398995L542.8194093123599 362.4529944398995Q548.5607470138956 362.4529944398995 560.0434224169671 357.7692715781203L560.0434224169671 357.7692715781203L560.4664683528697 357.557748610169L560.4664683528697 356.7116567383637L560.0434224169671 356.7116567383637Q557.4749292347011 356.7116567383637 547.503132174139 359.03840938582823ZM666.0466469274271 217.10649789049455L666.0466469274271 217.10649789049455L680.0675979459144 219.88651404071186Q683.6937059679369 219.88651404071186 692.3963652207912 226.05089767815025L692.3963652207912 226.05089767815025L693.2424570925964 226.05089767815025Q693.4539800605477 217.7712843611987 694.7533354351059 217.7712843611987L694.7533354351059 217.7712843611987Q701.1292420404956 220.09803700866317 702.3983798482034 220.09803700866317L702.3983798482034 220.09803700866317L706.6288392072298 220.09803700866317L710.0434242613011 219.88651404071186L710.4664701972036 220.52108294456582L710.2549472292524 221.7902207522737L710.2549472292524 248.98603091744303Q710.2549472292524 251.34300113175772 708.7742864535932 252.82366190741692L708.7742864535932 252.82366190741692Q710.4664701972036 254.51584565102746 710.4664701972036 255.99650642668666Q710.4664701972036 257.47716720234587 709.1973323894957 259.62261444870927L709.1973323894957 259.62261444870927L709.8319012933497 263.21850490388164Q709.8319012933497 265.7869980861476 708.5627634856418 265.7869980861476L708.5627634856418 265.7869980861476L703.0329487520573 264.94090621434236L702.821425784106 264.94090621434236L699.8298866659375 265.7869980861476L699.4068407300348 265.7869980861476Q698.5607488582295 265.7869980861476 696.6570421466677 256.6310753305406L696.6570421466677 256.6310753305406Q696.6570421466677 253.66975377922222 694.0885489644016 251.34300113175772L694.0885489644016 251.34300113175772Q691.3387503810346 247.2938471738325 691.3387503810346 245.81318639817326L691.3387503810346 245.81318639817326L692.6078881887424 245.39014046227064L692.6078881887424 245.17861749431933Q689.4350436694727 242.61012431205336 688.8004747656188 239.43727979278358L688.8004747656188 239.43727979278358Q680.0675979459144 230.7044029730792 673.9334318753262 230.7044029730792L673.9334318753262 230.7044029730792L672.4225535328168 230.7044029730792Q670.0958008853523 230.7044029730792 651.1796040371345 235.17660286690705L651.1796040371345 235.17660286690705Q649.487420293524 236.44574067461497 645.6497893035502 243.2446932159073L645.6497893035502 243.2446932159073Q641.630852912475 248.5629849815404 641.630852912475 253.45823081127088L641.630852912475 253.45823081127088Q642.8999907201829 267.0561358938555 645.0152203996962 267.0561358938555L645.0152203996962 267.0561358938555Q647.7952365499135 274.2781343710505 651.6026499730372 275.7587951467097L651.6026499730372 275.7587951467097Q652.2372188768911 276.8164099864663 656.709418770719 277.8740248262229L656.709418770719 277.8740248262229Q659.6707403220374 280.6540409764402 669.249709013547 284.6729773675152L669.249709013547 284.6729773675152Q669.249709013547 285.5492868061707 671.3649386930603 285.760809774122L671.3649386930603 285.760809774122L673.9334318753262 284.88450033546656Q675.6256156189366 285.33776383821936 675.6256156189366 285.760809774122L675.6256156189366 285.760809774122L675.6256156189366 285.9723327420733L674.7795237471315 286.81842461387856L674.7795237471315 287.4529935177325Q677.7408452984499 291.04888397290495 682.0015222243264 291.04888397290495L682.0015222243264 291.04888397290495L682.0015222243264 290.8373610049536L677.9523682664012 287.4529935177325L677.9523682664012 287.2414705497812Q679.8560749779631 287.2414705497812 691.5502733489859 294.6749919949275L691.5502733489859 294.6749919949275Q709.1973323894957 311.02269566087926 709.1973323894957 315.4948955547071L709.1973323894957 315.4948955547071Q712.1586539408141 328.45823173343786 712.1586539408141 331.63107625270754L712.1586539408141 331.63107625270754Q710.2549472292524 347.79747451755827 708.5627634856418 347.79747451755827L708.5627634856418 347.79747451755827L703.45599468796 356.7116567383637Q688.8004747656188 365.6258389591693 686.2319815833528 365.6258389591693L686.2319815833528 365.6258389591693Q661.8161875684008 360.33776476038634 653.7480972194005 357.13470267426635L653.7480972194005 357.13470267426635Q637.1586530186472 341.6330908801199 637.1586530186472 338.85307472990246L637.1586530186472 338.85307472990246L636.312561146842 338.2185058260486L635.8895152109393 338.4300287939999L635.8895152109393 339.48764363375653L635.8895152109393 351.39336497273064Q635.8895152109393 352.87402574838984 628.2444707978417 352.87402574838984L628.2444707978417 352.87402574838984L624.4068398078679 352.87402574838984L621.2339952885981 353.96185815499655Q619.7533345129389 353.96185815499655 617.3963642986242 351.6048879406819L617.3963642986242 351.6048879406819L617.3963642986242 351.39336497273064L618.4539791383808 349.70118122912004Q619.9648574808901 314.0142347790479 622.0800871604033 314.0142347790479L622.0800871604033 314.0142347790479L622.503133096306 314.0142347790479L626.3407640862799 314.64880368290187Q627.3983789260365 314.64880368290187 628.4559937657931 314.0142347790479L628.4559937657931 314.0142347790479L631.2057923491602 314.64880368290187L632.6864531248194 314.2257577469992L633.5627625634748 314.2257577469992Q634.4088544352801 314.64880368290187 637.3701759865986 320.3901413844376L637.3701759865986 320.3901413844376Q645.4382663355988 330.573461412951 651.8141729409884 339.9409071365093L651.8141729409884 339.9409071365093Q652.6602648127938 339.9409071365093 657.1324647066216 345.6520272711948L657.1324647066216 345.6520272711948L670.3073238533036 351.39336497273064L674.1449548432776 351.39336497273064L674.1449548432776 352.2394568445359L674.5680007791801 352.2394568445359L675.6256156189366 351.6048879406819L676.0486615548393 351.6048879406819Q677.7408452984499 352.87402574838984 679.2215060741091 352.87402574838984L679.2215060741091 352.87402574838984L680.490643881817 352.87402574838984Q686.2319815833528 352.66250278043844 686.2319815833528 351.39336497273064L686.2319815833528 351.39336497273064L686.2319815833528 350.97031903682796L682.0015222243264 350.97031903682796L679.4330290420604 350.7587960688767Q679.6445520100118 349.91270419707143 694.5418124671545 347.5859515496069L694.5418124671545 347.5859515496069Q697.9261799543756 347.5859515496069 701.1292420404956 335.68023021063277L701.1292420404956 335.68023021063277Q701.1292420404956 331.84259922065894 703.0329487520573 330.15041547704834L703.0329487520573 330.15041547704834L703.0329487520573 329.3043236052431Q699.4068407300348 318.03317117012284 694.9648584030572 314.64880368290187L694.9648584030572 314.64880368290187Q692.3963652207912 310.176603789074 675.6256156189366 304.22374311958697L675.6256156189366 304.22374311958697Q664.5659861517679 299.99328376056064 657.7670336104756 294.2519460590249L657.7670336104756 294.2519460590249Q647.7952365499135 291.2604069408562 646.2843582074041 287.66451648568386L646.2843582074041 287.66451648568386Q645.0152203996962 284.88450033546656 636.5240841147933 278.538811296927L636.5240841147933 278.538811296927Q632.6864531248194 266.84461292590424 628.2444707978417 260.4687063205145L628.2444707978417 260.4687063205145Q625.8875005835271 251.1012605969562 625.8875005835271 240.70641760049148L625.8875005835271 240.70641760049148Q627.6099018939877 233.69594209124784 641.2078069765724 221.36717481637106L641.2078069765724 221.36717481637106Q649.0643743576213 217.10649789049455 666.0466469274271 217.10649789049455ZM641.2078069765724 224.57023690249102L641.2078069765724 224.57023690249102L643.7460825919883 224.57023690249102Q645.4382663355988 224.57023690249102 659.459217354086 220.94412888046844L659.459217354086 220.94412888046844Q664.5659861517679 220.09803700866317 664.5659861517679 219.2519451368579L664.5659861517679 219.2519451368579L663.7198942799627 219.0404221689066Q641.2078069765724 220.94412888046844 641.2078069765724 224.57023690249102ZM697.2916110505216 221.7902207522737L697.2916110505216 221.7902207522737L697.0800880825703 222.63631262407898L697.0800880825703 223.27088152793291Q697.0800880825703 224.57023690249102 698.7722718261808 224.57023690249102L698.7722718261808 224.57023690249102L702.3983798482034 224.57023690249102L702.3983798482034 224.3587139345397Q700.25293260184 221.7902207522737 697.2916110505216 221.7902207522737ZM647.5837135819621 232.42680428353992L647.5837135819621 232.42680428353992L648.0067595178648 232.42680428353992Q650.121989197378 232.42680428353992 657.9785565784268 228.58917329356603L657.9785565784268 228.58917329356603L663.7198942799627 226.47394361405287L663.7198942799627 226.68546658200418L663.0853253761087 227.95460438971207L664.7775091197192 227.95460438971207L666.0466469274271 227.53155845380945L666.0466469274271 226.68546658200418L665.6236009915244 226.05089767815025L665.6236009915244 224.78175987044233L665.2005550556219 224.78175987044233Q656.709418770719 227.32003548585814 651.1796040371345 230.06983406922524L651.1796040371345 230.06983406922524Q647.5837135819621 230.7044029730792 647.5837135819621 232.42680428353992ZM683.4821829999856 226.47394361405287L683.4821829999856 226.47394361405287L679.8560749779631 226.47394361405287Q679.8560749779631 226.8969895499555 686.2319815833528 228.58917329356603L686.2319815833528 228.58917329356603L687.2895964231094 228.58917329356603L687.7428599258621 228.37765032561472L687.7428599258621 227.95460438971207Q687.078073455158 226.47394361405287 683.4821829999856 226.47394361405287ZM698.5607488582295 226.68546658200418L698.1377029223269 226.68546658200418L697.7146569864243 227.53155845380945L697.7146569864243 227.95460438971207L697.9261799543756 229.22374219742L698.5607488582295 229.22374219742L699.1953177620835 228.58917329356603L699.1953177620835 227.53155845380945L698.5607488582295 226.68546658200418ZM642.2654218163291 229.64678813332262L642.2654218163291 229.64678813332262L642.2654218163291 229.85831110127396Q642.2654218163291 230.4928800051279 643.1115136881343 230.4928800051279L643.1115136881343 230.4928800051279Q644.1691285278908 230.06983406922524 644.5921744637935 229.01221922946868L644.5921744637935 229.01221922946868L644.5921744637935 228.58917329356603Q642.6884677522316 228.58917329356603 642.2654218163291 229.64678813332262ZM690.4926585092293 230.7044029730792L690.4926585092293 230.7044029730792L691.5502733489859 231.79223537968596L692.6078881887424 231.79223537968596L693.2424570925964 231.15766647583206L693.2424570925964 230.4928800051279Q693.2424570925964 229.85831110127396 691.5502733489859 229.22374219742L691.5502733489859 229.22374219742Q690.4926585092293 229.64678813332262 690.4926585092293 230.7044029730792ZM701.3407650084469 233.69594209124784L701.3407650084469 233.69594209124784L701.9753339123008 234.11898802715046L701.9753339123008 234.33051099510178L701.1292420404956 235.38812583485839L701.1292420404956 236.02269473871232Q701.1292420404956 236.44574067461497 702.821425784106 237.0803095784689L702.821425784106 237.0803095784689Q703.2444717200087 238.80271088892962 704.090563591814 239.01423385688094L704.090563591814 239.01423385688094L704.7251324956679 239.01423385688094L704.7251324956679 238.1681419850757L704.5136095277165 237.50335551437152L704.5136095277165 236.65726364256628L705.1481784315705 236.65726364256628L706.2057932713271 237.50335551437152L706.6288392072298 237.50335551437152L706.8403621751811 236.23421770666366L706.8403621751811 235.811171770761Q705.3597013995219 229.85831110127396 704.7251324956679 229.85831110127396L704.7251324956679 229.85831110127396L703.45599468796 229.85831110127396Q701.3407650084469 230.7044029730792 701.3407650084469 233.69594209124784ZM640.9962840086212 239.01423385688094L640.9962840086212 239.01423385688094L642.2654218163291 240.28337166458886L642.6884677522316 240.28337166458886Q645.2267433676475 239.8603257286862 647.3721906140108 237.50335551437152L647.3721906140108 237.50335551437152L646.7376217101569 237.0803095784689L644.3806514958422 237.0803095784689Q642.0538988483777 237.0803095784689 640.9962840086212 239.01423385688094ZM632.0518842209655 237.2918325464202L631.6288382850628 237.2918325464202L630.9942693812088 237.95661901712438L630.9942693812088 238.1681419850757L632.0518842209655 238.1681419850757L632.0518842209655 237.2918325464202ZM637.3701759865986 247.2938471738325L637.3701759865986 247.2938471738325L637.3701759865986 247.50537014178383L637.7932219225012 247.50537014178383Q641.630852912475 243.87926211976122 641.630852912475 241.12946353639413L641.630852912475 241.12946353639413L640.9962840086212 240.49489463254017Q638.4277908263551 240.49489463254017 637.3701759865986 247.2938471738325ZM706.8403621751811 241.9755554081994L706.6288392072298 241.12946353639413L705.5712243674732 241.12946353639413L705.5712243674732 241.55250947229675Q706.2057932713271 242.82164728000467 706.8403621751811 242.82164728000467L706.8403621751811 242.82164728000467L706.8403621751811 241.9755554081994ZM704.5136095277165 243.2446932159073L704.5136095277165 242.61012431205336L703.8790406238626 243.2446932159073L704.5136095277165 243.2446932159073ZM701.9753339123008 243.6677391518099L701.1292420404956 243.6677391518099L700.25293260184 244.30230805566387L700.25293260184 244.5440485904654L701.1292420404956 245.39014046227064L701.9753339123008 245.39014046227064L702.821425784106 244.5440485904654L702.821425784106 244.30230805566387L701.9753339123008 243.6677391518099ZM706.6288392072298 245.81318639817326L705.9942703033759 245.81318639817326L705.1481784315705 246.44775530202722L705.1481784315705 247.92841607768645L705.3597013995219 249.40907685334565L705.9942703033759 249.40907685334565L706.6288392072298 245.81318639817326ZM702.3983798482034 249.83212278924833L701.5522879763981 249.40907685334565L701.1292420404956 249.40907685334565L701.1292420404956 249.83212278924833L701.5522879763981 250.46669169310223L702.3983798482034 250.46669169310223L702.3983798482034 249.83212278924833ZM700.887501505694 255.15041455488142L700.887501505694 255.15041455488142L700.887501505694 258.5649996089527L701.3407650084469 258.9880455448553L701.5522879763981 258.9880455448553Q703.2444717200087 258.9880455448553 703.45599468796 257.47716720234587L703.45599468796 257.47716720234587Q702.3983798482034 254.93889158693008 702.3983798482034 253.24670784331954L702.3983798482034 253.24670784331954L701.9753339123008 253.24670784331954Q700.887501505694 253.66975377922222 700.887501505694 255.15041455488142ZM702.3983798482034 261.9493670961738L701.9753339123008 261.9493670961738L701.3407650084469 262.58393600002773L702.3983798482034 263.21850490388164L703.0329487520573 263.21850490388164L703.2444717200087 262.58393600002773L702.3983798482034 261.9493670961738ZM636.5240841147933 271.07507228493057L636.5240841147933 271.07507228493057L636.5240841147933 272.58595062743996L637.3701759865986 273.43204249924526L639.0623597302091 273.43204249924526L639.0623597302091 272.58595062743996Q637.5816989545499 271.07507228493057 636.5240841147933 271.07507228493057ZM640.5732380727185 276.8164099864663L640.5732380727185 276.8164099864663L640.3617151047672 276.8164099864663L640.3617151047672 277.8740248262229Q644.8036974317448 281.07708691234285 646.2843582074041 281.07708691234285L646.2843582074041 281.07708691234285L647.1606676460596 281.07708691234285L647.1606676460596 280.23099504053755Q644.1691285278908 278.0855477941742 640.5732380727185 276.8164099864663ZM667.7690482378879 284.6729773675152L667.1344793340339 284.03840846366126L665.2005550556219 284.03840846366126Q665.4120780235731 284.88450033546656 666.8927387992323 284.88450033546656L666.8927387992323 284.88450033546656L667.7690482378879 284.88450033546656L667.7690482378879 284.6729773675152ZM669.249709013547 287.2414705497812L669.249709013547 287.2414705497812L668.6151401096931 287.66451648568386Q669.4612319814984 288.9336542933918 675.6256156189366 291.68345287675885L675.6256156189366 291.68345287675885L675.6256156189366 290.8373610049536Q672.6340765007682 288.0875624215865 669.249709013547 287.2414705497812ZM674.1449548432776 299.99328376056064L674.1449548432776 299.99328376056064L673.0571224366707 299.99328376056064L673.0571224366707 301.05089860031717Q675.837138586888 302.3200364080251 679.8560749779631 302.5315593759764L679.8560749779631 302.5315593759764Q679.8560749779631 303.37765124778167 681.3669533204725 303.37765124778167L681.3669533204725 303.37765124778167L683.0591370640831 303.37765124778167L683.0591370640831 303.16612827983033Q683.0591370640831 301.2624215682685 674.1449548432776 299.99328376056064ZM688.8004747656188 306.3691903659503L688.3774288297161 305.73462146209636L687.7428599258621 305.73462146209636L687.7428599258621 306.3691903659503L688.3774288297161 307.0037592698043L688.8004747656188 307.0037592698043L688.8004747656188 306.3691903659503ZM624.4068398078679 327.6121398616325L624.4068398078679 327.6121398616325L623.5607479360626 327.6121398616325Q622.503133096306 330.7849843809023 622.503133096306 335.68023021063277L622.503133096306 335.68023021063277L622.9261790322087 338.4300287939999L623.13770200016 338.4300287939999Q625.0414087117218 338.4300287939999 625.0414087117218 336.7378450503894L625.0414087117218 336.7378450503894Q624.4068398078679 331.84259922065894 624.4068398078679 327.6121398616325ZM628.8790397016957 333.7765234990709L628.8790397016957 333.7765234990709Q627.8214248619391 337.37241395424326 626.5522870542312 338.4300287939999L626.5522870542312 338.4300287939999L627.3983789260365 340.7869990083145L627.3983789260365 346.28659617504877L627.3983789260365 347.5859515496069Q627.3983789260365 349.0666123252661 628.2444707978417 349.0666123252661L628.2444707978417 349.0666123252661L629.5136086055496 349.0666123252661L630.1481775094036 348.43204342141223L630.1481775094036 347.5859515496069Q630.1481775094036 333.7765234990709 628.8790397016957 333.7765234990709ZM640.5732380727185 339.06459769785386L640.5732380727185 339.06459769785386L640.3617151047672 339.06459769785386L640.3617151047672 339.48764363375653Q641.2078069765724 342.9022286878277 643.5345596240369 342.9022286878277L643.5345596240369 342.9022286878277L643.5345596240369 342.4791827519251Q642.0538988483777 339.06459769785386 640.5732380727185 339.06459769785386ZM623.13770200016 343.74832055963304L623.13770200016 343.74832055963304L623.5607479360626 344.1713664955356L623.7722709040139 344.1713664955356Q624.4068398078679 344.1713664955356 624.8298857437704 339.9409071365093L624.8298857437704 339.9409071365093L624.4068398078679 339.48764363375653Q623.5607479360626 339.48764363375653 623.13770200016 343.74832055963304ZM648.0067595178648 340.9985219762659L648.0067595178648 340.9985219762659L647.5837135819621 340.9985219762659L647.5837135819621 341.2100449442172Q649.2758973255727 344.382889463487 650.9680810691832 344.382889463487L650.9680810691832 344.382889463487L650.9680810691832 343.74832055963304Q649.2758973255727 341.84461384807116 648.0067595178648 340.9985219762659ZM704.090563591814 344.5944124314383L703.0329487520573 344.5944124314383L701.9753339123008 345.6520272711948L702.821425784106 346.52833670985035L703.8790406238626 346.52833670985035L704.7251324956679 345.6520272711948L704.7251324956679 345.22898133529225L704.090563591814 344.5944124314383ZM660.5470497606929 349.48965826116876L660.5470497606929 349.48965826116876L660.5470497606929 349.70118122912004Q660.9700956965955 350.7587960688767 662.0277105363521 350.7587960688767L662.0277105363521 350.7587960688767Q661.6046646004494 349.48965826116876 660.5470497606929 349.48965826116876ZM650.3335121653292 349.91270419707143L650.3335121653292 349.91270419707143L648.85285138967 349.70118122912004L648.85285138967 349.91270419707143Q650.9680810691832 354.5964270588505 659.459217354086 357.13470267426635L659.459217354086 357.13470267426635Q666.4696928633297 359.6729782896822 679.2215060741091 362.4529944398995L679.2215060741091 362.4529944398995Q681.7899992563752 364.14517818351 683.6937059679369 364.3567011514614L683.6937059679369 364.3567011514614L685.5974126794988 364.3567011514614Q690.915704445132 362.87604037580206 690.915704445132 360.5492877283376L690.915704445132 360.5492877283376L671.7879846289628 359.03840938582823Q655.0172350271084 353.75033518704527 650.3335121653292 349.91270419707143ZM687.7428599258621 356.0770878345098L687.7428599258621 356.0770878345098L687.7428599258621 356.5001337704124L688.3774288297161 356.92317970631507L689.4350436694727 356.92317970631507Q697.0800880825703 356.92317970631507 697.9261799543756 354.8079500268019L697.9261799543756 354.8079500268019L697.0800880825703 354.3849040908992L695.8109502748624 354.3849040908992Q693.4539800605477 354.3849040908992 687.7428599258621 356.0770878345098ZM682.6360911281804 361.39537960014286L681.3669533204725 361.39537960014286L681.3669533204725 360.5492877283376L681.7899992563752 360.5492877283376Q683.2706600320344 360.5492877283376 683.2706600320344 361.39537960014286L683.2706600320344 361.39537960014286L682.6360911281804 361.39537960014286Z " fill="#8800ff" transform="matrix(1.2286588271007661,0,0,1.2286588271007661,0,-57.079997906959505)"/></g></svg>